<svg width="64" height="62" viewBox="0 0 64 62" fill="none" xmlns="http://www.w3.org/2000/svg">
<path d="M58.5519 18.7996L44.6454 16.3362L37.7613 3.67303C37.1468 2.54377 36.2211 1.62639 35.0843 1.02014C31.8899 -0.683742 27.9049 0.528888 26.2007 3.72403L19.5611 16.188L17.0677 16.6513C16.389 16.7776 15.941 17.43 16.0671 18.1087C16.1932 18.7875 16.8461 19.235 17.5245 19.1093L19.8338 18.6802L21.5196 21.0006C19.4515 22.7081 17.8126 24.9171 16.7882 27.4387L3.18715 23.0195C3.3484 22.7794 3.53566 22.5542 3.74903 22.3488C4.36091 21.7603 5.12604 21.3827 5.96179 21.2572C5.97604 21.2551 5.99041 21.2527 6.00466 21.25L6.46254 21.1647C7.14129 21.0385 7.58917 20.386 7.46279 19.7072C7.33642 19.0283 6.68354 18.5805 6.00529 18.707L5.56779 18.7883C4.22541 18.9947 2.99765 19.6026 2.0159 20.547C0.75077 21.7638 0.035267 23.4007 0.00126682 25.156C-0.0327333 26.9112 0.618644 28.5747 1.83665 29.8408L11.6454 40.0143L9.82518 53.8915C9.5433 55.3104 9.7293 56.7476 10.3642 58.0512C11.5027 60.3894 13.8522 61.7516 16.2932 61.7516C17.2592 61.7516 18.2393 61.5384 19.1647 61.0878L31.8553 54.9105L44.8746 61.1128C46.0276 61.6631 47.3182 61.8599 48.6071 61.6815C52.198 61.1849 54.7151 57.8595 54.2183 54.2667L52.2628 40.2735L61.9397 30.0665C62.9774 29.0868 63.6553 27.8252 63.9013 26.416C64.5255 22.8401 62.1244 19.4232 58.5519 18.7996ZM60.6359 22.7758L46.8391 27.2587C45.8773 24.9705 44.4061 22.9475 42.5683 21.3316L44.3863 18.8293L58.1189 21.2618C59.1566 21.443 60.0347 22.0035 60.6359 22.7758ZM49.8118 40.7975L51.742 54.611C51.8847 55.6425 51.6255 56.6384 51.0853 57.441L42.5772 45.7306C44.4059 44.1201 45.8713 42.1064 46.8317 39.8293L49.8118 40.7975ZM35.5651 4.86753L42.3594 17.3658L40.5703 19.8283C38.3795 18.4297 35.833 17.5412 33.0993 17.3325V2.90102C33.3744 2.97877 33.6454 3.08602 33.9078 3.2259C34.612 3.60152 35.1853 4.1694 35.5651 4.86753ZM21.8521 17.2047L28.4069 4.90003C28.8966 3.9819 29.691 3.32852 30.5993 2.99702V17.3326C28.0447 17.528 25.6542 18.3176 23.5644 19.5616L21.8521 17.2047ZM31.8504 19.785C39.4322 19.785 45.6004 25.9532 45.6004 33.535C45.6004 41.1168 39.4322 47.2851 31.8504 47.2851C24.2686 47.2851 18.1003 41.1168 18.1003 33.535C18.1003 25.9532 24.2686 19.785 31.8504 19.785ZM13.0664 57.6841C12.8931 57.4624 12.7398 57.2197 12.6118 56.9567C12.2138 56.1394 12.1002 55.2376 12.2832 54.3491C12.2894 54.3195 12.2944 54.2895 12.2983 54.2595L14.0997 40.525L16.7953 39.649C17.8187 42.1597 19.4516 44.3593 21.5105 46.0618L13.0664 57.6841ZM3.63741 28.1067C2.93465 27.3762 2.53665 26.4312 2.50278 25.4257L16.0291 29.8208C15.749 31.0141 15.6003 32.2575 15.6003 33.535C15.6003 34.8193 15.7507 36.0689 16.0337 37.2679L13.3202 38.1497L3.63741 28.1067ZM18.0702 58.8399C17.1211 59.3021 16.0788 59.3619 15.1378 59.0864L23.5542 47.5023C25.6466 48.7498 28.0407 49.5416 30.5994 49.7373V52.7413L18.0702 58.8399ZM48.2646 59.205C47.4621 59.3164 46.6617 59.1957 45.9506 58.8561L33.0993 52.734V49.7376C35.8373 49.5286 38.3874 48.6377 40.5804 47.2353L49.1203 58.9896C48.8488 59.0901 48.5629 59.1637 48.2646 59.205ZM61.4384 25.9859C61.2845 26.8682 60.8577 27.6566 60.2049 28.266C60.1862 28.2835 60.1681 28.3014 60.1505 28.32L50.5773 38.4175L47.6208 37.4569C47.9334 36.2004 48.1004 34.8869 48.1004 33.535C48.1004 32.1899 47.9351 30.8828 47.6254 29.6319L61.4959 25.1251C61.5069 25.408 61.489 25.696 61.4384 25.9859Z" fill="#FF2E63"/>
<path d="M31.8503 44.7848C38.0537 44.7848 43.1004 39.7381 43.1004 33.5348C43.1004 27.3316 38.0537 22.2849 31.8503 22.2849C25.647 22.2849 20.6003 27.3316 20.6003 33.5348C20.6003 39.7381 25.647 44.7848 31.8503 44.7848ZM31.8503 24.7848C36.6752 24.7848 40.6004 28.7101 40.6004 33.5348C40.6004 38.3596 36.6752 42.2848 31.8503 42.2848C27.0255 42.2848 23.1003 38.3596 23.1003 33.5348C23.1003 28.7101 27.0255 24.7848 31.8503 24.7848Z" fill="#346CD9"/>
<path d="M30.4644 37.2848C29.7741 37.2848 29.2144 37.8446 29.2144 38.5348C29.2144 39.2251 29.7741 39.7848 30.4644 39.7848H33.2361C33.9264 39.7848 34.4861 39.2251 34.4861 38.5348C34.4861 37.8446 33.9264 37.2848 33.2361 37.2848H33.1003V28.5349C33.1003 28.0884 32.862 27.6757 32.4753 27.4524C32.0885 27.2291 31.612 27.2291 31.2253 27.4524L29.8394 28.2526C29.2415 28.5978 29.0366 29.3623 29.3819 29.9601C29.6374 30.4026 30.122 30.6298 30.6003 30.5779V37.2847H30.4644V37.2848Z" fill="#346CD9"/>
<path d="M11.7654 20.158C12.4556 20.158 13.0154 19.5983 13.0154 18.908C13.0154 18.2178 12.4556 17.658 11.7654 17.658H11.7644C11.0741 17.658 10.5149 18.2178 10.5149 18.908C10.5149 19.5983 11.0751 20.158 11.7654 20.158Z" fill="#FF2E63"/>
</svg>
